<?xml version="1.0" encoding="iso-8859-1"?>
<!-- Generator: Adobe Illustrator 19.0.0, SVG Export Plug-In . SVG Version: 6.00 Build 0)  -->
<svg version="1.1" id="Layer_1" xmlns="http://www.w3.org/2000/svg" xmlns:xlink="http://www.w3.org/1999/xlink" x="0px" y="0px"
	 viewBox="0 0 512 512" style="enable-background:new 0 0 512 512;" xml:space="preserve">
<g>
	<g>
		<path d="M360.548,29.538h-11.01V8.615c0-5.438-3.173-8.615-8.615-8.615H183.385c-5.442,0-11.077,3.178-11.077,8.615v20.923
			h-18.538c-32.529,0-60.231,25.308-60.231,57.923V451.62c0,32.615,27.721,60.38,60.289,60.38h206.808
			c32.567,0,57.827-27.764,57.827-60.38V87.461C418.462,54.846,393.164,29.538,360.548,29.538z M192,19.692h137.846v49.231H192
			V19.692z M398.769,451.62c0,21.755-16.433,40.688-38.135,40.688H153.827c-21.702,0-40.596-18.933-40.596-40.688V87.461
			c0-21.76,18.865-38.231,40.539-38.231h18.538v28.308c0,5.438,5.635,11.077,11.077,11.077h157.539
			c5.442,0,8.615-5.639,8.615-11.077V49.231h11.01c21.75,0,38.221,16.471,38.221,38.231V451.62z"/>
	</g>
</g>
<g>
	<g>
		<rect x="270.769" y="128" width="78.769" height="19.692"/>
	</g>
</g>
<g>
	<g>
		<rect x="152.615" y="206.769" width="196.923" height="19.692"/>
	</g>
</g>
<g>
	<g>
		<rect x="152.615" y="265.846" width="196.923" height="19.692"/>
	</g>
</g>
<g>
	<g>
		<rect x="152.615" y="324.923" width="196.923" height="19.692"/>
	</g>
</g>
<g>
	<g>
		<rect x="152.615" y="384" width="196.923" height="19.692"/>
	</g>
</g>
<g>
</g>
<g>
</g>
<g>
</g>
<g>
</g>
<g>
</g>
<g>
</g>
<g>
</g>
<g>
</g>
<g>
</g>
<g>
</g>
<g>
</g>
<g>
</g>
<g>
</g>
<g>
</g>
<g>
</g>
</svg>
